<svg xmlns="http://www.w3.org/2000/svg" width="24" height="24" viewBox="0 0 24 24" id="tiktok">
  <g id="social/logos/tiktok" fill="none" fill-rule="evenodd" stroke="none" stroke-linecap="round" stroke-linejoin="round" stroke-width="1">
    <path id="line" stroke="#000" d="M15.5,2.5 C15.5,4.64219539 17.1839685,6.39107888 19.3003597,6.49510469 L19.5,6.5 L19.5,9.5 C18.0126081,9.5 16.6335669,9.03609553 15.4996713,8.2450814 L15.5,14.5 C15.5,17.8137085 12.8137085,20.5 9.5,20.5 L9,20.5 C5.96243388,20.5 3.5,18.0375661 3.5,15 C3.5,11.9624339 5.96243388,9.5 9,9.5 L9.5,9.5 L9.5,12.5 L9,12.5 C7.61928813,12.5 6.5,13.6192881 6.5,15 C6.5,16.3807119 7.61928813,17.5 9,17.5 L9.5,17.5 C11.1568542,17.5 12.5,16.1568542 12.5,14.5 L12.5,2.5 L15.5,2.5 Z"></path>
  </g>
</svg>
