<svg xmlns="http://www.w3.org/2000/svg" viewBox="0 0 24 24" id="youtube">
  <g>
    <g>
      <g>
        <path fill="none" stroke="#303c42" stroke-linecap="round" stroke-linejoin="round" d="M9.5 7.5v9l7-4.5-7-4.5z"></path>
      </g>
      <path fill="none" stroke="#303c42" stroke-linecap="round" stroke-linejoin="round" d="M3.13 4.17 5 3.93a56.22 56.22 0 0 1 7-.43h0a56.22 56.22 0 0 1 7 .43l1.9.24a3 3 0 0 1 2.63 3v9.7a3 3 0 0 1-2.63 3l-1.9.24a56.22 56.22 0 0 1-7 .43h0a56.22 56.22 0 0 1-7-.43l-1.9-.24a3 3 0 0 1-2.63-3V7.15a3 3 0 0 1 2.66-2.98Z"></path>
    </g>
  </g>
</svg>
